<?xml version="1.0" encoding="utf-8"?>
<!-- Generator: Adobe Illustrator 19.0.0, SVG Export Plug-In . SVG Version: 6.00 Build 0)  -->
<svg version="1.1" id="Layer_4" xmlns="http://www.w3.org/2000/svg" xmlns:xlink="http://www.w3.org/1999/xlink" x="0px" y="0px"
	 viewBox="0 0 496 150" style="enable-background:new 0 0 496 150;" xml:space="preserve">
<style type="text/css">
	.st0{clip-path:url(#SVGID_2_);}
	.st1{fill:#FFFFFF;stroke:#231F20;stroke-width:0.25;stroke-miterlimit:10;}
	.st2{fill:#77787B;}
	.st3{fill:url(#SVGID_3_);}
	.st4{fill:#FFFFFF;}
	.st5{fill:url(#SVGID_4_);}
	.st6{fill:none;stroke:#CACCCD;stroke-width:0.1205;stroke-miterlimit:10;}
	.st7{fill:url(#SVGID_5_);}
	.st8{fill:#CACCCD;}
	.st9{fill:url(#SVGID_6_);}
	.st10{clip-path:url(#SVGID_8_);}
	.st11{fill:url(#SVGID_9_);}
	.st12{fill:#30689A;}
	.st13{fill:url(#SVGID_10_);}
	.st14{fill:url(#SVGID_11_);}
	.st15{fill:url(#SVGID_12_);stroke:#175B8B;stroke-width:0.3614;stroke-miterlimit:10;}
	.st16{fill:none;stroke:#CACCCD;stroke-width:0.1637;stroke-miterlimit:10;}
	.st17{fill:#EBEBEC;}
	.st18{clip-path:url(#SVGID_14_);}
	.st19{clip-path:url(#SVGID_16_);}
	.st20{fill:#DC2127;}
	.st21{fill:url(#SVGID_17_);}
	.st22{fill:url(#SVGID_18_);}
	.st23{opacity:0.5;clip-path:url(#SVGID_16_);fill:url(#SVGID_19_);}
	.st24{opacity:0.5;clip-path:url(#SVGID_16_);fill:url(#SVGID_20_);}
	.st25{opacity:0.4;clip-path:url(#SVGID_16_);}
	.st26{fill:url(#SVGID_21_);}
	.st27{opacity:0.6;fill:url(#SVGID_22_);}
	.st28{fill:url(#SVGID_23_);}
	.st29{fill:url(#SVGID_26_);}
	.st30{opacity:0.8;clip-path:url(#SVGID_28_);fill:url(#SVGID_29_);}
	.st31{fill:#E0E1E2;}
</style>
<g>
	<defs>
		<rect id="SVGID_1_" x="-0.3" y="0.1" width="496" height="150"/>
	</defs>
	<clipPath id="SVGID_2_">
		<use xlink:href="#SVGID_1_"  style="overflow:visible;"/>
	</clipPath>
	<g class="st0">
		<path class="st1" d="M493.6,142.7c0,2.7-2.2,4.9-5,4.9H6.7c-2.8,0-5-2.2-5-4.9V7.5c0-2.7,2.2-4.9,5-4.9h481.9c2.8,0,5,2.2,5,4.9
			V142.7z"/>
		<g>
			<path class="st2" d="M172,60.3l-0.4-2h-0.1c-0.7,0.9-1.4,1.4-2,1.7c-0.7,0.3-1.5,0.5-2.5,0.5c-1.4,0-2.4-0.4-3.2-1.1
				c-0.8-0.7-1.2-1.7-1.2-3c0-2.8,2.2-4.2,6.6-4.4l2.3-0.1v-0.9c0-1.1-0.2-1.9-0.7-2.4c-0.5-0.5-1.2-0.8-2.2-0.8
				c-1.1,0-2.4,0.4-3.9,1.1l-0.6-1.6c0.7-0.4,1.4-0.7,2.2-0.9c0.8-0.2,1.6-0.3,2.4-0.3c1.6,0,2.8,0.4,3.6,1.1
				c0.8,0.7,1.2,1.9,1.2,3.5v9.4H172z M167.3,58.9c1.3,0,2.3-0.4,3-1.1c0.7-0.7,1.1-1.7,1.1-3v-1.2l-2.1,0.1
				c-1.7,0.1-2.8,0.3-3.6,0.8c-0.7,0.5-1.1,1.2-1.1,2.1c0,0.8,0.2,1.3,0.7,1.7C165.9,58.7,166.5,58.9,167.3,58.9z"/>
			<path class="st2" d="M180.9,60.3l-5.2-13.7h2.2l3,8.1c0.7,1.9,1.1,3.1,1.2,3.7h0.1c0.1-0.4,0.4-1.4,0.9-2.7
				c0.5-1.4,1.6-4.4,3.3-9.1h2.2l-5.2,13.7H180.9z"/>
			<path class="st2" d="M199.1,60.3l-0.4-2h-0.1c-0.7,0.9-1.4,1.4-2,1.7c-0.7,0.3-1.5,0.5-2.5,0.5c-1.4,0-2.4-0.4-3.2-1.1
				c-0.8-0.7-1.2-1.7-1.2-3c0-2.8,2.2-4.2,6.6-4.4l2.3-0.1v-0.9c0-1.1-0.2-1.9-0.7-2.4c-0.5-0.5-1.2-0.8-2.2-0.8
				c-1.1,0-2.4,0.4-3.9,1.1l-0.6-1.6c0.7-0.4,1.4-0.7,2.2-0.9c0.8-0.2,1.6-0.3,2.4-0.3c1.6,0,2.8,0.4,3.6,1.1
				c0.8,0.7,1.2,1.9,1.2,3.5v9.4H199.1z M194.4,58.9c1.3,0,2.3-0.4,3-1.1c0.7-0.7,1.1-1.7,1.1-3v-1.2l-2.1,0.1
				c-1.7,0.1-2.8,0.3-3.6,0.8c-0.7,0.5-1.1,1.2-1.1,2.1c0,0.8,0.2,1.3,0.7,1.7C193,58.7,193.6,58.9,194.4,58.9z"/>
			<path class="st2" d="M204.8,42.9c0-0.5,0.1-0.8,0.4-1c0.2-0.2,0.5-0.3,0.9-0.3c0.3,0,0.6,0.1,0.9,0.3c0.2,0.2,0.4,0.6,0.4,1
				s-0.1,0.8-0.4,1c-0.2,0.2-0.5,0.3-0.9,0.3c-0.3,0-0.6-0.1-0.9-0.3C204.9,43.7,204.8,43.4,204.8,42.9z M207,60.3H205V46.6h2.1
				V60.3z"/>
			<path class="st2" d="M213.5,60.3h-2.1V40.9h2.1V60.3z"/>
			<path class="st2" d="M226.4,60.3l-0.4-2h-0.1c-0.7,0.9-1.4,1.4-2,1.7c-0.7,0.3-1.5,0.5-2.5,0.5c-1.4,0-2.4-0.4-3.2-1.1
				c-0.8-0.7-1.2-1.7-1.2-3c0-2.8,2.2-4.2,6.6-4.4l2.3-0.1v-0.9c0-1.1-0.2-1.9-0.7-2.4c-0.5-0.5-1.2-0.8-2.2-0.8
				c-1.1,0-2.4,0.4-3.9,1.1l-0.6-1.6c0.7-0.4,1.4-0.7,2.2-0.9c0.8-0.2,1.6-0.3,2.4-0.3c1.6,0,2.8,0.4,3.6,1.1
				c0.8,0.7,1.2,1.9,1.2,3.5v9.4H226.4z M221.7,58.9c1.3,0,2.3-0.4,3-1.1c0.7-0.7,1.1-1.7,1.1-3v-1.2l-2.1,0.1
				c-1.7,0.1-2.8,0.3-3.6,0.8c-0.7,0.5-1.1,1.2-1.1,2.1c0,0.8,0.2,1.3,0.7,1.7C220.2,58.7,220.8,58.9,221.7,58.9z"/>
			<path class="st2" d="M238.6,46.4c1.8,0,3.2,0.6,4.2,1.8c1,1.2,1.5,3,1.5,5.2c0,2.3-0.5,4-1.5,5.3c-1,1.2-2.4,1.9-4.2,1.9
				c-0.9,0-1.7-0.2-2.4-0.5c-0.7-0.3-1.4-0.8-1.9-1.5h-0.2l-0.4,1.8h-1.5V40.9h2.1v4.7c0,1.1,0,2-0.1,2.9h0.1
				C235.2,47.1,236.7,46.4,238.6,46.4z M238.3,48.1c-1.4,0-2.4,0.4-3.1,1.2c-0.6,0.8-0.9,2.2-0.9,4.1c0,1.9,0.3,3.3,1,4.1
				c0.6,0.8,1.7,1.2,3.1,1.2c1.3,0,2.2-0.5,2.9-1.4c0.6-0.9,0.9-2.3,0.9-4c0-1.8-0.3-3.1-0.9-4C240.5,48.6,239.6,48.1,238.3,48.1z"
				/>
			<path class="st2" d="M250,60.3h-2.1V40.9h2.1V60.3z"/>
			<path class="st2" d="M260.2,60.6c-2,0-3.6-0.6-4.8-1.9c-1.2-1.2-1.8-2.9-1.8-5.1c0-2.2,0.5-4,1.6-5.3c1.1-1.3,2.6-2,4.4-2
				c1.7,0,3.1,0.6,4.1,1.7c1,1.1,1.5,2.6,1.5,4.5v1.3h-9.5c0,1.6,0.4,2.8,1.2,3.7c0.8,0.8,1.9,1.3,3.3,1.3c1.5,0,2.9-0.3,4.4-0.9
				v1.9c-0.7,0.3-1.4,0.5-2.1,0.7C261.9,60.5,261.1,60.6,260.2,60.6z M259.6,48.1c-1.1,0-2,0.4-2.6,1.1c-0.7,0.7-1,1.7-1.2,3h7.2
				c0-1.3-0.3-2.3-0.9-3C261.5,48.5,260.7,48.1,259.6,48.1z"/>
			<path class="st2" d="M275.2,42.9c0-0.5,0.1-0.8,0.4-1c0.2-0.2,0.5-0.3,0.9-0.3c0.3,0,0.6,0.1,0.9,0.3c0.2,0.2,0.4,0.6,0.4,1
				s-0.1,0.8-0.4,1c-0.2,0.2-0.5,0.3-0.9,0.3c-0.3,0-0.6-0.1-0.9-0.3C275.4,43.7,275.2,43.4,275.2,42.9z M277.5,60.3h-2.1V46.6h2.1
				V60.3z"/>
			<path class="st2" d="M291.3,60.3v-8.9c0-1.1-0.3-2-0.8-2.5c-0.5-0.6-1.3-0.8-2.4-0.8c-1.4,0-2.5,0.4-3.2,1.2
				c-0.7,0.8-1,2.1-1,3.8v7.2h-2.1V46.6h1.7l0.3,1.9h0.1c0.4-0.7,1-1.2,1.8-1.6c0.8-0.4,1.6-0.6,2.6-0.6c1.7,0,2.9,0.4,3.7,1.2
				c0.8,0.8,1.3,2.1,1.3,3.8v8.9H291.3z"/>
			<path class="st2" d="M308.7,58.9c0.4,0,0.7,0,1.1-0.1c0.3-0.1,0.6-0.1,0.8-0.2v1.6c-0.2,0.1-0.6,0.2-1,0.3
				c-0.4,0.1-0.8,0.1-1.2,0.1c-2.7,0-4-1.4-4-4.2v-8.2h-2v-1l2-0.9l0.9-2.9h1.2v3.2h4v1.6h-4v8.1c0,0.8,0.2,1.5,0.6,1.9
				C307.5,58.7,308,58.9,308.7,58.9z"/>
			<path class="st2" d="M322.7,60.3v-8.9c0-1.1-0.3-2-0.8-2.5c-0.5-0.6-1.3-0.8-2.4-0.8c-1.4,0-2.5,0.4-3.2,1.2
				c-0.7,0.8-1,2.1-1,3.9v7.2h-2.1V40.9h2.1v5.9c0,0.7,0,1.3-0.1,1.8h0.1c0.4-0.7,1-1.2,1.7-1.6c0.8-0.4,1.6-0.6,2.6-0.6
				c1.7,0,2.9,0.4,3.8,1.2c0.8,0.8,1.3,2.1,1.3,3.8v8.9H322.7z"/>
			<path class="st2" d="M334.9,60.6c-2,0-3.6-0.6-4.8-1.9c-1.2-1.2-1.8-2.9-1.8-5.1c0-2.2,0.5-4,1.6-5.3c1.1-1.3,2.6-2,4.4-2
				c1.7,0,3.1,0.6,4.1,1.7c1,1.1,1.5,2.6,1.5,4.5v1.3h-9.4c0,1.6,0.4,2.8,1.2,3.7c0.8,0.8,1.9,1.3,3.3,1.3c1.5,0,2.9-0.3,4.4-0.9
				v1.9c-0.7,0.3-1.4,0.5-2.1,0.7S335.8,60.6,334.9,60.6z M334.3,48.1c-1.1,0-2,0.4-2.6,1.1c-0.7,0.7-1,1.7-1.2,3h7.2
				c0-1.3-0.3-2.3-0.9-3C336.2,48.5,335.4,48.1,334.3,48.1z"/>
			<path class="st2" d="M172.6,103c-2.9,0-5.1-0.9-6.7-2.7c-1.6-1.8-2.4-4.3-2.4-7.6c0-3.3,0.8-5.9,2.4-7.8c1.6-1.8,3.9-2.7,6.9-2.7
				c1,0,1.9,0.1,2.9,0.3c1,0.2,1.7,0.5,2.3,0.7l-0.9,2.6c-0.7-0.3-1.4-0.5-2.2-0.7c-0.8-0.2-1.5-0.3-2.1-0.3c-4.1,0-6.1,2.6-6.1,7.8
				c0,2.5,0.5,4.3,1.5,5.7c1,1.3,2.5,2,4.4,2c1.7,0,3.4-0.4,5.1-1.1v2.7C176.3,102.6,174.7,103,172.6,103z"/>
			<path class="st2" d="M196.2,102.6v-13c0-1.6-0.4-2.9-1.1-3.7c-0.7-0.8-1.9-1.2-3.5-1.2c-2.1,0-3.6,0.6-4.6,1.7
				c-1,1.1-1.5,3-1.5,5.6v10.5h-3V74.2h3v8.6c0,1,0,1.9-0.1,2.6h0.2c0.6-1,1.4-1.7,2.5-2.3c1.1-0.6,2.4-0.8,3.8-0.8
				c2.4,0,4.3,0.6,5.5,1.7c1.2,1.2,1.8,3,1.8,5.5v13.1H196.2z"/>
			<path class="st2" d="M214.6,82.2c0.9,0,1.7,0.1,2.4,0.2l-0.4,2.8c-0.8-0.2-1.6-0.3-2.2-0.3c-1.6,0-3,0.7-4.2,2
				c-1.2,1.3-1.7,3-1.7,4.9v10.7h-3v-20h2.5l0.3,3.7h0.1c0.7-1.3,1.6-2.3,2.7-3C212.2,82.6,213.3,82.2,214.6,82.2z"/>
			<path class="st2" d="M237.2,92.6c0,3.3-0.8,5.8-2.5,7.6c-1.6,1.8-3.9,2.8-6.8,2.8c-1.8,0-3.4-0.4-4.8-1.3c-1.4-0.8-2.5-2-3.2-3.6
				c-0.8-1.6-1.1-3.4-1.1-5.5c0-3.3,0.8-5.8,2.4-7.6c1.6-1.8,3.9-2.7,6.8-2.7c2.8,0,5,0.9,6.7,2.8C236.4,86.9,237.2,89.4,237.2,92.6
				z M222,92.6c0,2.6,0.5,4.5,1.5,5.8c1,1.3,2.5,2,4.5,2c2,0,3.5-0.7,4.5-2c1-1.3,1.5-3.3,1.5-5.9c0-2.5-0.5-4.5-1.5-5.8
				c-1-1.3-2.6-2-4.6-2c-2,0-3.5,0.7-4.5,2C222.5,88.1,222,90,222,92.6z"/>
			<path class="st2" d="M268.1,102.6v-13c0-1.6-0.3-2.8-1-3.6c-0.7-0.8-1.7-1.2-3.2-1.2c-1.9,0-3.3,0.5-4.2,1.6
				c-0.9,1.1-1.4,2.8-1.4,5v11.2h-3v-13c0-1.6-0.3-2.8-1-3.6c-0.7-0.8-1.7-1.2-3.2-1.2c-1.9,0-3.3,0.6-4.2,1.7
				c-0.9,1.1-1.3,3-1.3,5.6v10.5h-3v-20h2.5l0.5,2.7h0.1c0.6-1,1.4-1.7,2.4-2.3c1-0.5,2.2-0.8,3.5-0.8c3.1,0,5.2,1.1,6.1,3.4h0.1
				c0.6-1,1.5-1.9,2.6-2.5c1.1-0.6,2.4-0.9,3.9-0.9c2.3,0,4,0.6,5.1,1.7c1.1,1.2,1.7,3,1.7,5.6v13.1H268.1z"/>
			<path class="st2" d="M285.8,103c-3,0-5.3-0.9-7-2.7c-1.7-1.8-2.6-4.3-2.6-7.5c0-3.2,0.8-5.8,2.4-7.7c1.6-1.9,3.7-2.9,6.4-2.9
				c2.5,0,4.5,0.8,6,2.5c1.5,1.7,2.2,3.8,2.2,6.5v1.9h-13.8c0.1,2.4,0.7,4.1,1.8,5.4c1.1,1.2,2.7,1.8,4.8,1.8c2.2,0,4.3-0.5,6.4-1.4
				v2.7c-1.1,0.5-2.1,0.8-3,1C288.4,102.9,287.2,103,285.8,103z M285,84.8c-1.6,0-2.9,0.5-3.8,1.6c-1,1-1.5,2.5-1.7,4.3H290
				c0-1.9-0.4-3.4-1.3-4.4C287.8,85.3,286.6,84.8,285,84.8z"/>
			<path class="st2" d="M324.5,102.6l-3.7-11.8c-0.2-0.7-0.7-2.4-1.3-4.9h-0.1c-0.5,2.1-0.9,3.8-1.3,4.9l-3.8,11.7h-3.5l-5.5-20h3.2
				c1.3,5,2.3,8.9,3,11.5c0.7,2.6,1.1,4.4,1.2,5.3h0.1c0.1-0.7,0.3-1.6,0.6-2.7c0.3-1.1,0.6-2,0.8-2.6l3.7-11.5h3.3l3.6,11.5
				c0.7,2.1,1.1,3.9,1.4,5.3h0.1c0-0.4,0.2-1.1,0.4-2c0.2-0.9,1.5-5.8,3.8-14.8h3.1l-5.5,20H324.5z"/>
			<path class="st2" d="M345.7,103c-3,0-5.3-0.9-7-2.7c-1.7-1.8-2.6-4.3-2.6-7.5c0-3.2,0.8-5.8,2.4-7.7c1.6-1.9,3.7-2.9,6.4-2.9
				c2.5,0,4.5,0.8,6,2.5c1.5,1.7,2.2,3.8,2.2,6.5v1.9h-13.8c0.1,2.4,0.7,4.1,1.8,5.4c1.1,1.2,2.7,1.8,4.8,1.8c2.2,0,4.3-0.5,6.4-1.4
				v2.7c-1.1,0.5-2.1,0.8-3,1C348.2,102.9,347,103,345.7,103z M344.9,84.8c-1.6,0-2.9,0.5-3.8,1.6c-1,1-1.5,2.5-1.7,4.3h10.5
				c0-1.9-0.4-3.4-1.3-4.4C347.7,85.3,346.5,84.8,344.9,84.8z"/>
			<path class="st2" d="M367.6,82.3c2.6,0,4.7,0.9,6.1,2.7c1.5,1.8,2.2,4.3,2.2,7.6c0,3.3-0.7,5.8-2.2,7.7c-1.5,1.8-3.5,2.7-6.1,2.7
				c-1.3,0-2.5-0.2-3.6-0.7c-1.1-0.5-2-1.2-2.7-2.2H361l-0.6,2.6h-2.2V74.2h3v6.9c0,1.5,0,2.9-0.1,4.2h0.1
				C362.7,83.3,364.8,82.3,367.6,82.3z M367.1,84.8c-2.1,0-3.6,0.6-4.5,1.8c-0.9,1.2-1.4,3.2-1.4,6c0,2.8,0.5,4.8,1.4,6
				c0.9,1.2,2.4,1.8,4.5,1.8c1.9,0,3.3-0.7,4.2-2c0.9-1.4,1.4-3.3,1.4-5.9c0-2.6-0.5-4.6-1.4-5.8C370.4,85.4,369,84.8,367.1,84.8z"
				/>
			<path class="st2" d="M403.8,97.2c0,1.9-0.7,3.3-2.1,4.3c-1.4,1-3.3,1.5-5.8,1.5c-2.7,0-4.7-0.4-6.2-1.3v-2.8c1,0.5,2,0.9,3.1,1.2
				c1.1,0.3,2.2,0.4,3.2,0.4c1.6,0,2.8-0.3,3.7-0.8c0.9-0.5,1.3-1.3,1.3-2.3c0-0.8-0.3-1.4-1-2c-0.7-0.6-2-1.2-4-2
				c-1.9-0.7-3.2-1.3-4-1.8c-0.8-0.5-1.4-1.1-1.8-1.8c-0.4-0.7-0.6-1.4-0.6-2.4c0-1.6,0.7-2.9,2-3.9c1.3-0.9,3.2-1.4,5.5-1.4
				c2.2,0,4.3,0.4,6.3,1.3l-1.1,2.5c-2-0.8-3.8-1.2-5.5-1.2c-1.4,0-2.5,0.2-3.3,0.7c-0.7,0.5-1.1,1.1-1.1,1.9c0,0.5,0.1,1,0.4,1.4
				c0.3,0.4,0.7,0.7,1.3,1.1c0.6,0.3,1.8,0.8,3.5,1.5c2.4,0.9,4,1.7,4.8,2.6C403.4,94.7,403.8,95.8,403.8,97.2z"/>
			<path class="st2" d="M415.2,100.5c0.5,0,1.1,0,1.6-0.1c0.5-0.1,0.9-0.2,1.2-0.2v2.3c-0.3,0.2-0.8,0.3-1.5,0.4
				c-0.6,0.1-1.2,0.2-1.7,0.2c-3.9,0-5.8-2-5.8-6.1V84.9h-2.9v-1.5l2.9-1.3l1.3-4.3h1.8v4.6h5.8v2.4H412v11.8c0,1.2,0.3,2.1,0.9,2.8
				C413.4,100.2,414.2,100.5,415.2,100.5z"/>
			<path class="st2" d="M439.3,92.6c0,3.3-0.8,5.8-2.5,7.6c-1.6,1.8-3.9,2.8-6.8,2.8c-1.8,0-3.4-0.4-4.8-1.3c-1.4-0.8-2.5-2-3.2-3.6
				c-0.8-1.6-1.1-3.4-1.1-5.5c0-3.3,0.8-5.8,2.4-7.6c1.6-1.8,3.9-2.7,6.8-2.7c2.8,0,5,0.9,6.7,2.8C438.4,86.9,439.3,89.4,439.3,92.6
				z M424,92.6c0,2.6,0.5,4.5,1.5,5.8c1,1.3,2.5,2,4.5,2s3.5-0.7,4.5-2c1-1.3,1.5-3.3,1.5-5.9c0-2.5-0.5-4.5-1.5-5.8
				c-1-1.3-2.6-2-4.6-2c-2,0-3.5,0.7-4.5,2C424.5,88.1,424,90,424,92.6z"/>
			<path class="st2" d="M453.7,82.2c0.9,0,1.7,0.1,2.4,0.2l-0.4,2.8c-0.8-0.2-1.6-0.3-2.2-0.3c-1.6,0-3,0.7-4.2,2
				c-1.2,1.3-1.7,3-1.7,4.9v10.7h-3v-20h2.5l0.3,3.7h0.1c0.7-1.3,1.6-2.3,2.7-3C451.3,82.6,452.5,82.2,453.7,82.2z"/>
			<path class="st2" d="M467.6,103c-3,0-5.3-0.9-7-2.7c-1.7-1.8-2.6-4.3-2.6-7.5c0-3.2,0.8-5.8,2.4-7.7c1.6-1.9,3.7-2.9,6.4-2.9
				c2.5,0,4.5,0.8,6,2.5c1.5,1.7,2.2,3.8,2.2,6.5v1.9h-13.8c0.1,2.4,0.7,4.1,1.8,5.4c1.1,1.2,2.7,1.8,4.8,1.8c2.2,0,4.3-0.5,6.4-1.4
				v2.7c-1.1,0.5-2.1,0.8-3,1C470.1,102.9,468.9,103,467.6,103z M466.8,84.8c-1.6,0-2.9,0.5-3.8,1.6c-1,1-1.5,2.5-1.7,4.3h10.5
				c0-1.9-0.4-3.4-1.3-4.4C469.6,85.3,468.3,84.8,466.8,84.8z"/>
		</g>
		<g>
			
				<image style="overflow:visible;" width="782" height="434" xlink:href="85DCDF827229A443.png"  transform="matrix(0.24 0 0 0.24 -15.6026 68.875)">
			</image>
		</g>
		<linearGradient id="SVGID_3_" gradientUnits="userSpaceOnUse" x1="99.5604" y1="37.7183" x2="96.7166" y2="52.7874">
			<stop  offset="0" style="stop-color:#E63D42"/>
			<stop  offset="1" style="stop-color:#A8202D"/>
		</linearGradient>
		<polygon class="st3" points="52.7,13.6 52.7,88.4 135.9,117.3 135.9,38.6 		"/>
		<path class="st4" d="M100.1,36.3c0,1.2-1,1.9-2.2,1.5l-16.1-4.8c-1.2-0.4-2.2-1.6-2.2-2.8l0,0c0-1.2,1-1.9,2.2-1.5l16.1,4.8
			C99.1,33.8,100.1,35.1,100.1,36.3L100.1,36.3z"/>
		<linearGradient id="SVGID_4_" gradientUnits="userSpaceOnUse" x1="122.0097" y1="36.5428" x2="118.646" y2="233.3227">
			<stop  offset="0" style="stop-color:#FFDC49"/>
			<stop  offset="1" style="stop-color:#F3B524"/>
		</linearGradient>
		<polygon class="st5" points="106.4,54.1 106.4,136.7 135.9,117.3 135.9,38.6 		"/>
		<path class="st6" d="M106.4,54.1"/>
		<linearGradient id="SVGID_5_" gradientUnits="userSpaceOnUse" x1="35.8563" y1="24.6443" x2="36.1398" y2="37.9401">
			<stop  offset="0" style="stop-color:#01B859"/>
			<stop  offset="0.1953" style="stop-color:#01B257"/>
			<stop  offset="0.4505" style="stop-color:#01A250"/>
			<stop  offset="0.7375" style="stop-color:#008745"/>
			<stop  offset="1" style="stop-color:#006838"/>
		</linearGradient>
		<polygon class="st7" points="20.5,25.4 20.5,105.1 52.7,88.3 52.7,13.6 		"/>
		<polygon class="st8" points="20.7,105.3 20.5,104.9 52.3,88.4 52.3,13.8 52.7,13.7 52.7,88.6 		"/>
		<linearGradient id="SVGID_6_" gradientUnits="userSpaceOnUse" x1="0.1484" y1="70.6798" x2="51.8815" y2="79.1418">
			<stop  offset="0" style="stop-color:#808080"/>
			<stop  offset="5.218327e-03" style="stop-color:#838383"/>
			<stop  offset="7.672310e-02" style="stop-color:#A4A4A4"/>
			<stop  offset="0.155" style="stop-color:#C0C0C0"/>
			<stop  offset="0.2435" style="stop-color:#D7D7D7"/>
			<stop  offset="0.3446" style="stop-color:#E9E9E9"/>
			<stop  offset="0.466" style="stop-color:#F6F6F6"/>
			<stop  offset="0.6281" style="stop-color:#FDFDFD"/>
			<stop  offset="1" style="stop-color:#FFFFFF"/>
		</linearGradient>
		<path class="st9" d="M20.5,25.4v79.7l85.9,31.6V54.1L20.5,25.4z"/>
		<g>
			<defs>
				<path id="SVGID_7_" d="M20.5,25.4v79.7l85.9,31.6V54.1L20.5,25.4z"/>
			</defs>
			<clipPath id="SVGID_8_">
				<use xlink:href="#SVGID_7_"  style="overflow:visible;"/>
			</clipPath>
			<g class="st10">
				<g>
					
						<image style="overflow:visible;opacity:0.75;" width="251" height="267" xlink:href="85DCDF827229A441.png"  transform="matrix(0.24 0 0 0.24 21.6074 72.2124)">
					</image>
					<g>
						<radialGradient id="SVGID_9_" cx="48.042" cy="97.3682" r="23.7356" gradientUnits="userSpaceOnUse">
							<stop  offset="0" style="stop-color:#43AEF5"/>
							<stop  offset="0.2212" style="stop-color:#39A3EA"/>
							<stop  offset="0.6098" style="stop-color:#1D87CC"/>
							<stop  offset="0.9448" style="stop-color:#006AAE"/>
						</radialGradient>
						<path class="st11" d="M54.9,121.5c-0.2,0-0.4,0-0.6,0l0-0.2l-0.3-0.1l-0.1,0.3c-0.7,0-1.5-0.2-2.2-0.3
							c-8.5-2-15.5-11.2-15.5-20.6c0-2.1,0.3-4.1,1-5.9l0.1-0.1l-0.1-0.1c1.9-4.8,6.1-7.7,11.1-7.7c1,0,2.1,0.1,3.2,0.4
							c4.7,1.1,9.1,4.4,12.1,9.1l0,0.2c0,0,0.1,0,0.1,0c2.2,3.5,3.3,7.4,3.3,11.3C67.1,115.8,62,121.5,54.9,121.5z"/>
						<path class="st12" d="M48.5,87c1,0,2.1,0.1,3.1,0.4c4.7,1.1,9.1,4.4,12,9.1l0,0c0,0.1,0.1,0.1,0.1,0.2l0,0l0,0
							c2.1,3.5,3.2,7.3,3.2,11.1c0,7.9-5.1,13.6-12,13.6c-0.2,0-0.3,0-0.5,0l-0.6-0.1l0,0.1c-0.7-0.1-1.4-0.2-2.1-0.3
							c-8.5-1.9-15.3-11.1-15.3-20.4c0-2.1,0.4-4.1,1.1-5.9c0-0.1,0-0.1,0.1-0.2l0,0l0,0C39.5,89.8,43.5,87,48.5,87 M48.5,86.7
							c-5.2,0-9.4,3-11.3,7.9c0.1,0.1,0.1,0.2,0.1,0.2s0-0.1-0.1-0.2c-0.7,1.8-1.1,3.8-1.1,6c0,9.5,7,18.8,15.6,20.7
							c0.8,0.2,1.6,0.3,2.4,0.4c0-0.1,0.1-0.3,0.1-0.4c0,0.1-0.1,0.3-0.1,0.4c0.3,0,0.5,0,0.8,0c7.1,0,12.4-5.7,12.4-13.9
							c0-4-1.3-8-3.4-11.4c-0.1,0-0.2,0-0.2,0c0.1,0,0.2,0,0.2,0c-2.9-4.6-7.3-8.2-12.2-9.3C50.6,86.8,49.5,86.7,48.5,86.7
							L48.5,86.7z"/>
					</g>
				</g>
			</g>
		</g>
		<linearGradient id="SVGID_10_" gradientUnits="userSpaceOnUse" x1="49.4427" y1="47.2094" x2="60.8783" y2="49.0799">
			<stop  offset="0" style="stop-color:#B5B7B9"/>
			<stop  offset="3.912151e-02" style="stop-color:#C0C2C4"/>
			<stop  offset="0.1387" style="stop-color:#D7D8D9"/>
			<stop  offset="0.2538" style="stop-color:#E9EAEA"/>
			<stop  offset="0.392" style="stop-color:#F6F6F6"/>
			<stop  offset="0.5766" style="stop-color:#FDFDFD"/>
			<stop  offset="1" style="stop-color:#FFFFFF"/>
		</linearGradient>
		<path class="st13" d="M71.9,54.7L55,49.2c-1.4-0.5-2.4-1.9-2.4-3.3c0-1.3,1.1-2.1,2.4-1.6l16.9,5.6c1.4,0.5,2.4,1.9,2.4,3.3
			C74.3,54.5,73.2,55.2,71.9,54.7z"/>
		<linearGradient id="SVGID_11_" gradientUnits="userSpaceOnUse" x1="52.5468" y1="49.4984" x2="74.3222" y2="49.4984">
			<stop  offset="0" style="stop-color:#DA1F30"/>
			<stop  offset="1" style="stop-color:#A8202D"/>
		</linearGradient>
		<path class="st14" d="M71.9,54.7L55,49.2c-1.4-0.5-2.4-1.9-2.4-3.3c0-1.3,1.1-2.1,2.4-1.6l16.9,5.6c1.4,0.5,2.4,1.9,2.4,3.3
			C74.3,54.5,73.2,55.2,71.9,54.7z"/>
		
			<radialGradient id="SVGID_12_" cx="-125.184" cy="134.1162" r="0" gradientTransform="matrix(0.4819 0 0 0.4819 97.6348 30.178)" gradientUnits="userSpaceOnUse">
			<stop  offset="0" style="stop-color:#43AEF5"/>
			<stop  offset="0.2212" style="stop-color:#39A3EA"/>
			<stop  offset="0.6098" style="stop-color:#1D87CC"/>
			<stop  offset="0.9448" style="stop-color:#006AAE"/>
		</radialGradient>
		<path class="st15" d="M37.3,94.8"/>
		<path class="st16" d="M106.4,137"/>
		<polygon class="st17" points="135.9,116.8 135.9,38.6 135.5,38.8 135.5,117.1 		"/>
		<g>
			<defs>
				<path id="SVGID_13_" d="M20.5,25.4v79.7l85.9,31.6V54.1L20.5,25.4z"/>
			</defs>
			<clipPath id="SVGID_14_">
				<use xlink:href="#SVGID_13_"  style="overflow:visible;"/>
			</clipPath>
			<g class="st18">
				<g>
					<defs>
						<path id="SVGID_15_" d="M36.5,64.9c-18.6,6.8-27.3,30.1-19.3,52c8,21.9,29.6,34.2,48.2,27.4c18.6-6.8,27.3-30.1,19.3-52
							C76.7,70.4,55.1,58.1,36.5,64.9z"/>
					</defs>
					<clipPath id="SVGID_16_">
						<use xlink:href="#SVGID_15_"  style="overflow:visible;"/>
					</clipPath>
					<g class="st19">
						
							<image style="overflow:visible;opacity:0.7;" width="190" height="210" xlink:href="85DCDF827229A447.png"  transform="matrix(0.24 0 0 0.24 28.1699 80.7168)">
						</image>
						<g>
							<path class="st4" d="M67.4,98.6c3.9,10.7-0.3,22.1-9.4,25.4c-9.1,3.3-19.7-2.7-23.6-13.4c-3.9-10.7,0.3-22.1,9.4-25.4
								C53,81.9,63.5,87.9,67.4,98.6z"/>
						</g>
					</g>
					<g class="st19">
						<path class="st20" d="M31.2,50.6c-13.8,5-23.5,16.7-27.8,31.1L41.2,118v0c-2.2-2.1-4-4.8-5.2-8c-3.5-9.6,0.3-19.9,8.5-22.8
							L88,71.3C74.1,52.3,51.4,43.2,31.2,50.6z"/>
						
							<radialGradient id="SVGID_17_" cx="33.4051" cy="99.3473" r="52.3937" gradientTransform="matrix(0.7985 -0.2906 0.342 0.9397 -12.8841 11.1798)" gradientUnits="userSpaceOnUse">
							<stop  offset="0.6621" style="stop-color:#50B749"/>
							<stop  offset="0.7658" style="stop-color:#4EB448"/>
							<stop  offset="0.849" style="stop-color:#4AAA46"/>
							<stop  offset="0.9249" style="stop-color:#429943"/>
							<stop  offset="0.9965" style="stop-color:#37813E"/>
							<stop  offset="1" style="stop-color:#36803E"/>
						</radialGradient>
						<path class="st21" d="M21,146.1c12,11.5,26.7,16.4,40.3,14.8l5.6-52.2l0,0c-0.3,3-1.3,5.9-3.1,8.4c-5.3,7.4-15.5,7.8-22.6,1
							L3.4,81.6C-3,103.1,3.4,129.2,21,146.1z"/>
						
							<radialGradient id="SVGID_18_" cx="32.1452" cy="97.8695" r="53.8406" gradientTransform="matrix(0.7985 -0.2906 0.342 0.9397 -12.8841 11.1798)" gradientUnits="userSpaceOnUse">
							<stop  offset="0.6621" style="stop-color:#FDD106"/>
							<stop  offset="0.7595" style="stop-color:#FBCE08"/>
							<stop  offset="0.8376" style="stop-color:#F3C40D"/>
							<stop  offset="0.9091" style="stop-color:#E6B317"/>
							<stop  offset="0.9763" style="stop-color:#D49B24"/>
							<stop  offset="1" style="stop-color:#CC912A"/>
						</radialGradient>
						<path class="st22" d="M100.5,117.1c1.8-16.6-3.2-33.1-12.5-45.8L44.6,87.1l0,0c2.5-0.9,5.3-1.1,8.3-0.4
							c8.8,2.2,15.2,12,14.1,21.9l-5.6,52.2C81.6,158.4,97.9,141.3,100.5,117.1z"/>
					</g>
					
						<linearGradient id="SVGID_19_" gradientUnits="userSpaceOnUse" x1="25.8409" y1="134.9977" x2="19.0148" y2="134.7133" gradientTransform="matrix(0.9397 -0.342 0.342 0.9397 -2.9173 7.4856)">
						<stop  offset="0" style="stop-color:#36803E"/>
						<stop  offset="1" style="stop-color:#36803E;stop-opacity:0.25"/>
					</linearGradient>
					<polyline class="st23" points="58.1,110.4 61.9,145.3 63,145.1 66.9,108.8 					"/>
					
						<linearGradient id="SVGID_20_" gradientUnits="userSpaceOnUse" x1="33.2002" y1="89.8143" x2="34.9852" y2="97.1763" gradientTransform="matrix(0.9397 -0.342 0.342 0.9397 -2.9173 7.4856)">
						<stop  offset="0" style="stop-color:#CC942B"/>
						<stop  offset="1" style="stop-color:#CC942B;stop-opacity:0.25"/>
					</linearGradient>
					<polyline class="st24" points="51,95.2 75.6,77.1 74.7,76.2 44.6,87.1 					"/>
					<g class="st25">
						
							<radialGradient id="SVGID_21_" cx="-62.847" cy="100.1814" r="51.0334" gradientTransform="matrix(0.7985 -0.2906 0.342 0.9397 -12.8841 11.1798)" gradientUnits="userSpaceOnUse">
							<stop  offset="0.6621" style="stop-color:#4F1E0B;stop-opacity:0"/>
							<stop  offset="0.9697" style="stop-color:#4F1E0B;stop-opacity:0.8649"/>
							<stop  offset="1" style="stop-color:#4F1E0B;stop-opacity:0.95"/>
						</radialGradient>
						<path class="st26" d="M7.5,120.5c8,21.9-0.7,45.1-19.2,51.8c-18.6,6.8-40.1-5.5-48-27.3c-8-21.9,0.6-45.1,19.2-51.8
							C-22,86.3-0.5,98.6,7.5,120.5z"/>
					</g>
				</g>
				
					<linearGradient id="SVGID_22_" gradientUnits="userSpaceOnUse" x1="-8.2062" y1="108.1458" x2="-2.3275" y2="99.3278" gradientTransform="matrix(0.9397 -0.342 0.342 0.9397 -2.9173 7.4856)">
					<stop  offset="0" style="stop-color:#9F1D21"/>
					<stop  offset="1" style="stop-color:#9F1D21;stop-opacity:0.25"/>
				</linearGradient>
				<polyline class="st27" points="43.5,108.2 15.1,91.4 14.8,92.6 41.1,117.9 				"/>
				<g>
					
						<radialGradient id="SVGID_23_" cx="35.2525" cy="101.1298" r="33.4777" gradientTransform="matrix(6.788959e-02 0.9833 -1.0043 -3.023819e-02 149.0238 64.3626)" gradientUnits="userSpaceOnUse">
						<stop  offset="0" style="stop-color:#FFFFFF"/>
						<stop  offset="0.3013" style="stop-color:#F6F6F6"/>
						<stop  offset="0.7949" style="stop-color:#DDDEDE"/>
						<stop  offset="1" style="stop-color:#D1D2D2"/>
					</radialGradient>
					<path class="st28" d="M65.9,99.2c3.5,9.7-0.3,20-8.5,23c-8.3,3-17.8-2.4-21.3-12.1c-3.5-9.7,0.3-20,8.5-23
						C52.8,84.1,62.3,89.5,65.9,99.2z"/>
				</g>
				<g>
					<defs>
						<path id="SVGID_24_" d="M-26.3,202.7c0,15.1-10.4,27.3-23.2,27.3c-12.8,0-23.2-12.2-23.2-27.3c0-15.1,10.4-27.3,23.2-27.3
							C-36.7,175.5-26.3,187.7-26.3,202.7z"/>
					</defs>
					<clipPath id="SVGID_25_">
						<use xlink:href="#SVGID_24_"  style="overflow:visible;"/>
					</clipPath>
				</g>
				
					<radialGradient id="SVGID_26_" cx="33.0604" cy="92.5551" r="32.869" gradientTransform="matrix(0.342 0.9397 -0.9604 0.3495 122.7514 25.1298)" gradientUnits="userSpaceOnUse">
					<stop  offset="0" style="stop-color:#86B8E1"/>
					<stop  offset="0.6252" style="stop-color:#3B80C2"/>
					<stop  offset="0.7137" style="stop-color:#357CBD"/>
					<stop  offset="0.8284" style="stop-color:#2571AF"/>
					<stop  offset="0.957" style="stop-color:#0B5E99"/>
					<stop  offset="1" style="stop-color:#005790"/>
				</radialGradient>
				<path class="st29" d="M63.6,100.1c3,8.2-0.2,17-7.2,19.5c-7,2.5-15.1-2.1-18.1-10.3c-3-8.2,0.2-17,7.2-19.5
					C52.5,87.3,60.6,91.9,63.6,100.1z"/>
				<g>
					<defs>
						<path id="SVGID_27_" d="M36.5,64.9c-18.6,6.8-27.3,30.1-19.3,52c8,21.9,29.6,34.2,48.2,27.4c18.6-6.8,27.3-30.1,19.3-52
							C76.7,70.4,55.1,58.1,36.5,64.9z"/>
					</defs>
					<clipPath id="SVGID_28_">
						<use xlink:href="#SVGID_27_"  style="overflow:visible;"/>
					</clipPath>
					
						<radialGradient id="SVGID_29_" cx="-1117.5203" cy="1666.2682" r="35.0102" gradientTransform="matrix(1.0053 -0.4173 0.2988 0.7458 659.7267 -1644.6107)" gradientUnits="userSpaceOnUse">
						<stop  offset="0.1595" style="stop-color:#F37D65"/>
						<stop  offset="1" style="stop-color:#F27C59;stop-opacity:0"/>
					</radialGradient>
					<path class="st30" d="M69.4,49.8c5.8,14.4-5.3,32.6-24.7,40.7C25.2,98.6,4.7,93.5-1,79c-5.8-14.4,5.3-32.6,24.7-40.7
						C43.1,30.3,63.6,35.4,69.4,49.8z"/>
				</g>
			</g>
		</g>
		<polygon class="st31" points="135.9,117.3 106.4,136.7 106.4,136.7 106.4,136.7 20.5,105.1 20.5,25.4 20.9,25.5 20.9,104.8 
			106.4,136.2 135.9,116.8 		"/>
	</g>
</g>
</svg>
