<?xml version="1.0" encoding="utf-8"?>
<!-- Generator: Adobe Illustrator 19.0.0, SVG Export Plug-In . SVG Version: 6.00 Build 0)  -->
<svg version="1.1" id="Layer_1" xmlns="http://www.w3.org/2000/svg" xmlns:xlink="http://www.w3.org/1999/xlink" x="0px" y="0px"
	 viewBox="0 0 2048 500" style="enable-background:new 0 0 2048 500;" xml:space="preserve">
<style type="text/css">
	.st0{fill:#4B4C4D;}
	.st1{display:none;}
	.st2{display:inline;fill:#7EC246;}
	.st3{display:inline;fill:#4C4C4C;}
	.st4{fill:#7EC246;}
	.st5{fill:#FFFFFF;}
</style>
<rect class="st0" width="2048" height="500"/>
<g class="st1">
	<path class="st2" d="M749.4,195.7c-24,0-42.3,15.8-49.3,41c-11.4-17.7-20.2-37.9-25.3-54.9h-25.3v66.9c0,13.3-10.7,24-24,24
		c-13.3,0-24-10.7-24-24v-66.9h-25.3v66.9c0,27.8,22.1,49.9,49.3,49.9c27.2,0,49.3-22.1,49.3-49.9v-11.4
		c5.1,10.1,11.4,20.8,18.3,30.3l-15.8,73.9h25.9l11.4-53.7c10.1,6.3,21.5,10.1,34.7,10.1c27.8,0,50.5-22.7,50.5-51.8
		C799.9,218.5,777.2,195.7,749.4,195.7z M749.4,272.1c-10.1,0-20.2-4.4-28.4-11.4l2.5-10.1V250c1.9-10.7,7.6-29,26.5-29
		c13.9,0,25.3,11.4,25.3,25.3C774.7,260.8,762.7,272.1,749.4,272.1z"/>
</g>
<g class="st1">
	<path class="st3" d="M877.8,228.8c-1.8,9.6-4,18.8-6.5,27.8l-11.6,42h-23l-33.5-95.8h24.7l12.4,40.1c2.8,9.3,5.3,18.3,7.5,27h0.4
		c1.8-8.4,4.1-17.4,6.6-27l11-40.1h24.7l10.8,40.1c2.3,8.5,4.5,17.5,6.6,27h0.4c2.2-8.9,4.7-17.9,7.5-27l12.4-40.1h24.7l-33.5,95.8
		h-23l-11.6-42c-2.6-9.4-4.8-18.7-6.5-27.8H877.8z"/>
	<path class="st3" d="M1016,288.5h-0.4c-1.3,1.4-2.9,2.8-4.7,4.3c-1.8,1.5-4,2.8-6.3,4.1c-2.4,1.3-5,2.3-7.9,3.1
		c-2.9,0.8-6,1.2-9.4,1.2c-4.5,0-8.8-0.7-12.8-2.1c-4-1.4-7.4-3.5-10.2-6.1c-2.8-2.7-5.1-5.9-6.7-9.7c-1.6-3.8-2.4-8-2.4-12.7
		c0-5.1,0.9-9.8,2.8-13.8c1.9-4.1,4.5-7.5,7.9-10.4c3.4-2.8,7.4-5,12.1-6.5c4.7-1.5,9.9-2.2,15.5-2.2c4.2,0,8,0.3,11.5,0.8
		c3.5,0.5,6.6,1.2,9.2,1.9v-3.9c0-2.2-0.4-4.4-1.1-6.5c-0.8-2.1-2-3.9-3.7-5.5c-1.7-1.6-3.9-2.9-6.6-3.9c-2.7-1-6-1.4-9.9-1.4
		c-4.7,0-9.5,0.5-14.2,1.6c-4.7,1.1-9.9,2.6-15.4,4.7v-18.3c4.8-2.1,9.9-3.7,15.3-4.8c5.4-1.1,11.1-1.7,17-1.8
		c7,0,13.1,0.9,18.3,2.6c5.2,1.7,9.6,4.1,13.2,7.1c3.5,3,6.2,6.5,7.9,10.6c1.7,4.1,2.6,8.5,2.6,13.3v36.1c0,6.3,0.1,11.8,0.2,16.3
		c0.1,4.5,0.3,8.6,0.4,12.2H1017L1016,288.5z M1014.1,257.8c-2.2-0.5-4.8-1-7.7-1.4c-2.9-0.4-5.8-0.6-8.8-0.6
		c-5.7,0-10.3,1.1-13.6,3.4c-3.3,2.3-5,5.8-5,10.4c0,2.2,0.4,4.1,1.1,5.7c0.8,1.6,1.8,3,3.1,4c1.3,1.1,2.8,1.8,4.5,2.4
		c1.7,0.5,3.5,0.8,5.4,0.8c2.4,0,4.6-0.3,6.7-0.9c2.1-0.6,4.1-1.4,5.8-2.4c1.8-1,3.4-2,4.8-3.2c1.4-1.2,2.6-2.3,3.6-3.5V257.8z"/>
	<path class="st3" d="M1115.3,298.6c-2.6,0.8-5.8,1.4-9.4,1.9c-3.7,0.5-7.1,0.7-10.2,0.7c-8,0-14.6-1.3-19.7-3.9
		c-5.1-2.6-8.7-6.3-10.8-11.2c-1.5-3.5-2.3-8.2-2.3-14.2v-49.6h-17.9v-19.3h17.9V176h23.4v26.8h27.7v19.3h-27.7v46.6
		c0,3.7,0.6,6.4,1.7,8.2c2,3,5.9,4.5,11.8,4.5c2.7,0,5.4-0.2,8.1-0.6c2.7-0.4,5.2-1,7.6-1.6V298.6z"/>
	<path class="st3" d="M1195.5,296.6c-3,1.3-6.6,2.3-10.9,3.2c-4.3,0.9-8.8,1.3-13.5,1.3c-6.9,0-13.4-1-19.4-3c-6-2-11.2-5-15.7-9
		c-4.5-4-8-9.1-10.6-15.3c-2.6-6.2-3.9-13.4-3.9-21.6c0-9.2,1.5-17.1,4.4-23.7c3-6.6,6.8-11.9,11.5-16.1c4.7-4.1,10-7.2,15.9-9.1
		c5.9-1.9,11.7-2.9,17.5-2.9c4.3,0,8.4,0.4,12.4,1.1c4,0.8,7.5,1.8,10.8,3.1v19.1c-2.9-1.3-6-2.3-9.2-3c-3.3-0.8-6.8-1.1-10.5-1.1
		c-3.8,0-7.4,0.6-10.8,1.7c-3.4,1.2-6.5,3-9.1,5.5c-2.6,2.5-4.7,5.8-6.3,9.9c-1.5,4.1-2.3,9.1-2.3,14.9c0,4.2,0.6,8.2,1.8,11.9
		c1.2,3.7,2.9,6.9,5.2,9.5c2.3,2.6,5.2,4.8,8.7,6.4c3.5,1.6,7.7,2.4,12.5,2.4c4.3,0,8.2-0.4,11.7-1.3c3.5-0.9,6.8-1.9,9.9-3.2V296.6
		z"/>
	<path class="st3" d="M1233.1,194.5c0,4.9-0.1,9-0.2,12.2c-0.2,3.2-0.4,6.1-0.8,8.7h0.4c1.4-1.8,3.1-3.7,5.1-5.5
		c2-1.8,4.2-3.4,6.6-4.8c2.4-1.4,5.1-2.5,8.2-3.3c3.1-0.9,6.4-1.3,10.1-1.3c3.2,0,6.2,0.3,9.2,0.9c3,0.6,5.8,1.6,8.4,2.9
		c2.6,1.3,5,3,7.1,5.1c2.1,2.1,3.9,4.6,5.4,7.5c1.3,2.5,2.2,5.3,2.8,8.5c0.6,3.2,0.9,7,0.9,11.6v61.6h-23.4v-58.4
		c0-3-0.1-5.4-0.4-7.3c-0.3-1.9-0.7-3.5-1.4-4.9c-1.4-2.9-3.4-4.9-5.9-6.1c-2.6-1.2-5.5-1.8-8.8-1.8c-4.5,0.1-8.8,1.2-12.6,3.3
		c-3.9,2.1-7.4,5.2-10.6,9.3v66h-23.4V155.5h23.4V194.5z"/>
	<path class="st3" d="M1364.3,282.2c4.5,0,9.3-0.5,14.2-1.4c4.9-0.9,10-2.2,15-4v18.7c-3,1.3-7.7,2.6-13.9,3.8
		c-6.3,1.2-12.8,1.8-19.5,1.8c-6.8,0-13.2-0.9-19.3-2.6c-6.1-1.7-11.4-4.6-16-8.5c-4.5-3.9-8.2-8.9-10.8-15.1
		c-2.7-6.2-4-13.7-4-22.5c0-8.7,1.3-16.3,3.8-22.8c2.5-6.5,5.9-11.9,10.1-16.2c4.2-4.3,9-7.5,14.5-9.6c5.4-2.1,11.1-3.2,16.9-3.2
		c6.1,0,11.7,0.9,16.8,2.8c5.1,1.8,9.5,4.7,13.3,8.7c3.7,4,6.6,9,8.7,15.3c2.1,6.2,3.1,13.6,3.1,22.1c-0.1,3.3-0.2,6.1-0.3,8.4
		h-62.8c0.3,4.4,1.3,8.2,3,11.3c1.6,3.1,3.8,5.7,6.5,7.6c2.7,1.9,5.8,3.4,9.3,4.3C1356.3,281.8,1360.1,282.2,1364.3,282.2z
		 M1354.9,218.8c-3,0-5.6,0.5-7.9,1.6c-2.3,1.1-4.3,2.6-6,4.5c-1.7,1.9-3,4.1-4,6.6c-1,2.5-1.6,5.2-2,8h37.7c0-2.8-0.4-5.5-1.1-8
		c-0.8-2.5-1.9-4.7-3.4-6.6c-1.5-1.9-3.3-3.4-5.5-4.5C1360.4,219.3,1357.8,218.8,1354.9,218.8z"/>
	<path class="st3" d="M1468.6,221.4h-2c-7.2,0-13.5,1.1-18.9,3.2c-5.4,2.1-9.6,5.4-12.6,9.8v64.2h-23.4v-95.8h19.4l2.2,13.3h0.4
		c2.8-4.9,6.6-8.7,11.4-11.5c4.8-2.8,10.7-4.2,17.5-4.2c2.4,0,4.4,0.1,6.1,0.4V221.4z"/>
</g>
<g>
	<g>
		<path class="st4" d="M678,177.8v67.3c0,22.6,9.4,33.1,23.6,33.1c15.2,0,24.3-10.4,24.3-33.1v-67.3h21.1v66
			c0,35.6-18.3,51.4-46.1,51.4c-26.7,0-44-14.9-44-51.2v-66.1H678z"/>
		<path class="st4" d="M755.3,237.6c0-11-0.3-19.9-0.7-27.8h18.5l1,12.8h0.3c6.2-9.4,15.9-14.7,28.6-14.7
			c19.2,0,35.1,16.4,35.1,42.5c0,30.2-19,44.7-38,44.7c-10.4,0-19.2-4.5-23.5-11.1h-0.3v43.2h-21.1V237.6z M776.4,258.3
			c0,2.1,0.2,3.9,0.5,5.8c2.2,8.6,9.6,14.7,18.7,14.7c13.4,0,21.2-11.1,21.2-27.6c0-14.7-7.2-26.7-20.7-26.7
			c-8.7,0-16.8,6.3-19,15.6c-0.3,1.7-0.7,3.6-0.7,5.3V258.3z"/>
		<path class="st5" d="M863.4,209.8l8.6,37.9c2.1,8.9,3.9,18,5.5,27.1h0.3c1.7-9.1,4.5-18.3,6.7-26.9l11-38h17.1l10.5,37
			c2.6,9.8,4.8,18.8,6.7,27.9h0.3c1.2-9.1,3.3-18.2,5.5-27.9l9.3-37h20.7l-26.2,83.4h-19.5l-9.9-33.9c-2.6-8.7-4.5-16.6-6.3-26.7
			h-0.3c-1.9,10.3-3.9,18.5-6.3,26.7l-10.6,33.9h-19.7l-24.7-83.4H863.4z"/>
		<path class="st5" d="M1041.9,273.2c0,7.5,0.3,14.9,1.4,20h-19l-1.5-9.3h-0.5c-5,6.5-13.7,11.1-24.7,11.1
			c-16.8,0-26.2-12.2-26.2-24.8c0-20.9,18.7-31.7,49.5-31.5v-1.4c0-5.5-2.2-14.6-17-14.6c-8.2,0-16.8,2.6-22.4,6.2l-4.1-13.7
			c6.2-3.8,17-7.4,30.2-7.4c26.7,0,34.4,17,34.4,35.3V273.2z M1021.3,252.5c-14.9-0.2-29.1,2.9-29.1,15.6c0,8.2,5.3,12,12,12
			c8.6,0,14.6-5.5,16.6-11.5c0.5-1.5,0.5-3.1,0.5-4.6V252.5z"/>
		<path class="st5" d="M1086.4,188.4v21.4h20v15.8h-20v36.8c0,10.3,2.7,15.4,10.8,15.4c3.8,0,5.8-0.2,8.2-0.9l0.3,15.9
			c-3.1,1.2-8.7,2.2-15.2,2.2c-7.9,0-14.2-2.6-18.2-6.9c-4.6-4.8-6.7-12.5-6.7-23.5v-39.2h-11.8v-15.8h11.8v-15.6L1086.4,188.4z"/>
		<path class="st5" d="M1181.9,290.7c-4.5,2.1-13.2,4.3-23.6,4.3c-26,0-43-16.8-43-42.7c0-25,17.1-44.4,46.4-44.4
			c7.7,0,15.6,1.7,20.4,3.8l-3.8,15.9c-3.4-1.7-8.4-3.3-15.9-3.3c-16.1,0-25.7,11.8-25.5,27.1c0,17.1,11.1,26.9,25.5,26.9
			c7.2,0,12.5-1.5,16.6-3.3L1181.9,290.7z"/>
		<path class="st5" d="M1196.6,171.6h21.1v49.5h0.3c2.6-3.9,6.2-7.2,10.4-9.4c4.3-2.4,9.3-3.8,14.6-3.8c14.2,0,29.1,9.4,29.1,36.1
			v49.2h-21.1v-46.9c0-12-4.5-21.2-16.1-21.2c-8.2,0-14,5.5-16.4,11.8c-0.7,1.9-0.9,4.1-0.9,6.3v50h-21.1V171.6z"/>
		<path class="st5" d="M1308.6,257.4c0.5,15.1,12.2,21.6,25.7,21.6c9.8,0,16.6-1.5,23.1-3.8l3.1,14.4c-7.2,3.1-17.1,5.3-29.1,5.3
			c-27.1,0-43-16.6-43-42.1c0-23.1,14-44.9,40.8-44.9c27.1,0,36,22.3,36,40.6c0,3.9-0.3,7-0.7,8.9H1308.6z M1345.3,242.7
			c0.2-7.7-3.3-20.4-17.3-20.4c-13,0-18.5,11.8-19.4,20.4H1345.3z"/>
		<path class="st5" d="M1381.3,236.7c0-11.3-0.2-19.5-0.7-26.9h18.2l0.9,15.8h0.5c4.1-11.6,13.9-17.6,23-17.6c2.1,0,3.3,0.2,5,0.5
			v19.7c-1.9-0.3-3.8-0.5-6.3-0.5c-9.9,0-17,6.3-18.8,15.9c-0.3,1.9-0.5,4.1-0.5,6.3v43.3h-21.1V236.7z"/>
	</g>
</g>
</svg>
